<?xml version="1.0" encoding="UTF-8"?>
<svg xmlns="http://www.w3.org/2000/svg" xmlns:xlink="http://www.w3.org/1999/xlink" width="82pt" height="50pt" viewBox="0 0 82 50" version="1.1">
<g id="surface1">
<path style=" stroke:none;fill-rule:nonzero;fill:rgb(0%,0%,0%);fill-opacity:1;" d="M 19.382812 13.039062 L 34.824219 13.039062 L 34.824219 14.28125 L 20.800781 14.28125 L 20.800781 23.632812 L 33.988281 23.632812 L 33.988281 24.875 L 20.800781 24.875 L 20.800781 35.144531 L 34.984375 35.144531 L 34.984375 36.386719 L 19.382812 36.386719 Z M 36.207031 13.039062 L 37.847656 13.039062 L 45.117188 23.308594 L 52.550781 13.039062 L 62.65625 0 L 46.050781 24.386719 L 54.609375 36.386719 L 52.902344 36.386719 L 45.117188 25.464844 L 37.300781 36.386719 L 35.628906 36.386719 L 44.25 24.386719 Z M 55.21875 14.28125 L 55.21875 13.039062 L 72.8125 13.039062 L 72.8125 14.28125 L 64.707031 14.28125 L 64.707031 36.386719 L 63.292969 36.386719 L 63.292969 14.28125 Z M 0.0664062 13.039062 L 1.835938 13.039062 L 26.234375 50 L 16.152344 36.386719 L 1.546875 14.804688 L 1.484375 36.386719 L 0.0664062 36.386719 Z M 72.671875 34.769531 C 72.382812 34.769531 72.164062 34.539062 72.164062 34.25 C 72.164062 33.953125 72.382812 33.726562 72.671875 33.726562 C 72.964844 33.726562 73.175781 33.953125 73.175781 34.25 C 73.175781 34.539062 72.964844 34.769531 72.671875 34.769531 Z M 74.0625 33.398438 L 74.820312 33.398438 C 74.832031 33.816406 75.128906 34.09375 75.570312 34.09375 C 76.0625 34.09375 76.339844 33.792969 76.339844 33.230469 L 76.339844 29.671875 L 77.113281 29.671875 L 77.113281 33.234375 C 77.113281 34.25 76.535156 34.832031 75.578125 34.832031 C 74.679688 34.832031 74.0625 34.265625 74.0625 33.398438 Z M 78.121094 33.355469 L 78.886719 33.355469 C 78.949219 33.832031 79.410156 34.136719 80.078125 34.136719 C 80.695312 34.136719 81.148438 33.8125 81.148438 33.363281 C 81.148438 32.980469 80.863281 32.75 80.203125 32.59375 L 79.5625 32.4375 C 78.664062 32.222656 78.253906 31.785156 78.253906 31.042969 C 78.253906 30.148438 78.976562 29.550781 80.0625 29.550781 C 81.070312 29.550781 81.808594 30.148438 81.851562 30.996094 L 81.101562 30.996094 C 81.03125 30.53125 80.632812 30.242188 80.050781 30.242188 C 79.441406 30.242188 79.035156 30.539062 79.035156 30.992188 C 79.035156 31.351562 79.296875 31.558594 79.945312 31.710938 L 80.492188 31.847656 C 81.511719 32.085938 81.933594 32.507812 81.933594 33.265625 C 81.933594 34.226562 81.195312 34.832031 80.019531 34.832031 C 78.917969 34.832031 78.175781 34.253906 78.121094 33.355469 Z M 78.121094 33.355469 "/>
</g>
</svg>
